<svg width="60" height="60" viewBox="0 0 60 60" fill="none" xmlns="http://www.w3.org/2000/svg">
<circle cx="30" cy="30" r="30" fill="#FEE2E2"/>
<g clip-path="url(#clip0_291_8705)">
<path d="M28.2856 34.4286C28.2856 34.8832 28.4663 35.3193 28.7877 35.6408C29.1092 35.9622 29.5453 36.1429 29.9999 36.1429C30.4546 36.1429 30.8906 35.9622 31.2121 35.6408C31.5336 35.3193 31.7142 34.8832 31.7142 34.4286C31.7142 33.9739 31.5336 33.5379 31.2121 33.2164C30.8906 32.8949 30.4546 32.7143 29.9999 32.7143C29.5453 32.7143 29.1092 32.8949 28.7877 33.2164C28.4663 33.5379 28.2856 33.9739 28.2856 34.4286ZM28.8571 23.5714V30.1429C28.8571 30.3 28.9856 30.4286 29.1428 30.4286H30.8571C31.0142 30.4286 31.1428 30.3 31.1428 30.1429V23.5714C31.1428 23.4143 31.0142 23.2857 30.8571 23.2857H29.1428C28.9856 23.2857 28.8571 23.4143 28.8571 23.5714ZM45.8464 39.2857L30.9892 13.5714C30.7678 13.1893 30.3856 13 29.9999 13C29.6142 13 29.2285 13.1893 29.0106 13.5714L14.1535 39.2857C13.7142 40.05 14.2642 41 15.1428 41H44.8571C45.7356 41 46.2856 40.05 45.8464 39.2857ZM17.8642 38.2893L29.9999 17.2821L42.1356 38.2893H17.8642Z" fill="#C03221"/>
</g>
<defs>
<clipPath id="clip0_291_8705">
<rect width="32" height="32" fill="white" transform="translate(14 11)"/>
</clipPath>
</defs>
</svg>
