<svg width="32" height="32" viewBox="0 0 32 32" fill="none" xmlns="http://www.w3.org/2000/svg">
<g clip-path="url(#clip0_604_657)">
<path d="M22.6785 10.3215H21.0035C20.6392 10.3215 20.2928 10.4965 20.0785 10.7965L14.4642 18.5822L11.9213 15.0537C11.707 14.7572 11.3642 14.5787 10.9963 14.5787H9.32132C9.08918 14.5787 8.95347 14.843 9.08918 15.0322L13.5392 21.2037C13.6443 21.3504 13.7829 21.47 13.9434 21.5524C14.104 21.6349 14.2819 21.6779 14.4624 21.6779C14.6429 21.6779 14.8208 21.6349 14.9813 21.5524C15.1419 21.47 15.2805 21.3504 15.3856 21.2037L22.907 10.7751C23.0463 10.5858 22.9106 10.3215 22.6785 10.3215Z" fill="#1AA053"/>
<path d="M16 0C7.16429 0 0 7.16429 0 16C0 24.8357 7.16429 32 16 32C24.8357 32 32 24.8357 32 16C32 7.16429 24.8357 0 16 0ZM16 29.2857C8.66429 29.2857 2.71429 23.3357 2.71429 16C2.71429 8.66429 8.66429 2.71429 16 2.71429C23.3357 2.71429 29.2857 8.66429 29.2857 16C29.2857 23.3357 23.3357 29.2857 16 29.2857Z" fill="#1AA053"/>
</g>
<defs>
<clipPath id="clip0_604_657">
<rect width="32" height="32" fill="white"/>
</clipPath>
</defs>
</svg>
