<svg width="22" height="22" viewBox="0 0 22 22" fill="none" xmlns="http://www.w3.org/2000/svg">
<g clip-path="url(#clip0_1_26747)">
<path d="M11.0001 4.76367C7.03957 4.76367 4.1398 6.77215 2.09448 11.0003C4.1398 15.2284 7.03957 17.2369 11.0001 17.2369C14.963 17.2369 17.8628 15.2284 19.9056 11.0003C17.8603 6.77215 14.9606 4.76367 11.0001 4.76367ZM10.9018 15.3217C8.51524 15.3217 6.58042 13.3869 6.58042 11.0003C6.58042 8.61367 8.51524 6.67885 10.9018 6.67885C13.2885 6.67885 15.2233 8.61367 15.2233 11.0003C15.2233 13.3869 13.2885 15.3217 10.9018 15.3217Z" fill="#E9ECEF"/>
<path d="M21.5628 10.3661C19.2352 5.46275 15.7166 2.99512 10.9999 2.99512C6.2807 2.99512 2.76463 5.46275 0.436951 10.3686C0.343587 10.5663 0.295166 10.7822 0.295166 11.0008C0.295166 11.2194 0.343587 11.4354 0.436951 11.6331C2.76463 16.5364 6.28316 19.004 10.9999 19.004C15.7191 19.004 19.2352 16.5364 21.5628 11.6306C21.7519 11.2328 21.7519 10.7712 21.5628 10.3661ZM10.9999 17.2362C7.03941 17.2362 4.13963 15.2277 2.09432 10.9996C4.13963 6.77146 7.03941 4.76297 10.9999 4.76297C14.9604 4.76297 17.8602 6.77146 19.9055 10.9996C17.8626 15.2277 14.9628 17.2362 10.9999 17.2362Z" fill="#8A92A6"/>
<path d="M10.9018 6.67871C8.51514 6.67871 6.58032 8.61353 6.58032 11.0001C6.58032 13.3867 8.51514 15.3216 10.9018 15.3216C13.2884 15.3216 15.2232 13.3867 15.2232 11.0001C15.2232 8.61353 13.2884 6.67871 10.9018 6.67871ZM10.9018 13.7501C9.38188 13.7501 8.15175 12.52 8.15175 11.0001C8.15175 9.48027 9.38188 8.25014 10.9018 8.25014C12.4216 8.25014 13.6518 9.48027 13.6518 11.0001C13.6518 12.52 12.4216 13.7501 10.9018 13.7501Z" fill="#8A92A6"/>
</g>
<defs>
<clipPath id="clip0_1_26747">
<rect width="22" height="22" fill="white"/>
</clipPath>
</defs>
</svg>
