<svg width="32" height="32" viewBox="0 0 32 32" fill="none" xmlns="http://www.w3.org/2000/svg">
<g clip-path="url(#clip0_604_62)">
<path d="M14.2856 23.4286C14.2856 23.8832 14.4663 24.3193 14.7877 24.6408C15.1092 24.9622 15.5453 25.1429 15.9999 25.1429C16.4546 25.1429 16.8906 24.9622 17.2121 24.6408C17.5336 24.3193 17.7142 23.8832 17.7142 23.4286C17.7142 22.9739 17.5336 22.5379 17.2121 22.2164C16.8906 21.8949 16.4546 21.7143 15.9999 21.7143C15.5453 21.7143 15.1092 21.8949 14.7877 22.2164C14.4663 22.5379 14.2856 22.9739 14.2856 23.4286ZM14.8571 12.5714V19.1429C14.8571 19.3 14.9856 19.4286 15.1428 19.4286H16.8571C17.0142 19.4286 17.1428 19.3 17.1428 19.1429V12.5714C17.1428 12.4143 17.0142 12.2857 16.8571 12.2857H15.1428C14.9856 12.2857 14.8571 12.4143 14.8571 12.5714ZM31.8464 28.2857L16.9892 2.57143C16.7678 2.18929 16.3856 2 15.9999 2C15.6142 2 15.2285 2.18929 15.0106 2.57143L0.1535 28.2857C-0.285786 29.05 0.264214 30 1.14279 30H30.8571C31.7356 30 32.2856 29.05 31.8464 28.2857ZM3.86421 27.2893L15.9999 6.28214L28.1356 27.2893H3.86421Z" fill="#C03221"/>
</g>
<defs>
<clipPath id="clip0_604_62">
<rect width="32" height="32" fill="white"/>
</clipPath>
</defs>
</svg>
